<svg xmlns="http://www.w3.org/2000/svg" xmlns:xlink="http://www.w3.org/1999/xlink" width="40" zoomAndPan="magnify" viewBox="0 0 30 30.000001" height="40" preserveAspectRatio="xMidYMid meet" version="1.0"><defs><clipPath id="b5b91d0592"><path d="M 3.386719 4.066406 L 19 4.066406 L 19 25 L 3.386719 25 Z M 3.386719 4.066406 " clip-rule="nonzero"/></clipPath><clipPath id="ddad9c170c"><path d="M 8 9 L 26.613281 9 L 26.613281 20 L 8 20 Z M 8 9 " clip-rule="nonzero"/></clipPath></defs><g clip-path="url(#b5b91d0592)"><path fill="#ffffff" d="M 15 24.964844 L 6.871094 24.964844 C 6.410156 24.964844 5.964844 24.875 5.539062 24.699219 C 5.113281 24.523438 4.734375 24.269531 4.410156 23.945312 C 4.082031 23.617188 3.832031 23.242188 3.65625 22.816406 C 3.476562 22.386719 3.390625 21.945312 3.386719 21.480469 L 3.386719 7.546875 C 3.390625 7.085938 3.476562 6.640625 3.65625 6.214844 C 3.832031 5.789062 4.082031 5.414062 4.410156 5.085938 C 4.734375 4.757812 5.113281 4.507812 5.539062 4.332031 C 5.964844 4.152344 6.410156 4.066406 6.871094 4.066406 L 15 4.066406 C 15.460938 4.066406 15.90625 4.152344 16.332031 4.332031 C 16.757812 4.507812 17.136719 4.757812 17.460938 5.085938 C 17.789062 5.414062 18.039062 5.789062 18.21875 6.214844 C 18.394531 6.640625 18.484375 7.085938 18.484375 7.546875 L 18.484375 9.871094 C 18.484375 10.023438 18.453125 10.171875 18.394531 10.316406 C 18.335938 10.457031 18.253906 10.582031 18.144531 10.691406 C 18.035156 10.800781 17.910156 10.882812 17.765625 10.941406 C 17.625 11.003906 17.476562 11.03125 17.324219 11.03125 C 17.167969 11.03125 17.019531 11.003906 16.878906 10.941406 C 16.734375 10.882812 16.609375 10.800781 16.5 10.691406 C 16.390625 10.582031 16.308594 10.457031 16.25 10.316406 C 16.191406 10.171875 16.160156 10.023438 16.160156 9.871094 L 16.160156 7.546875 C 16.160156 7.394531 16.132812 7.246094 16.074219 7.105469 C 16.015625 6.960938 15.929688 6.835938 15.820312 6.726562 C 15.710938 6.617188 15.585938 6.535156 15.445312 6.476562 C 15.300781 6.417969 15.152344 6.386719 15 6.386719 L 6.871094 6.386719 C 6.71875 6.386719 6.570312 6.417969 6.425781 6.476562 C 6.285156 6.535156 6.160156 6.617188 6.050781 6.726562 C 5.941406 6.835938 5.859375 6.960938 5.800781 7.105469 C 5.738281 7.246094 5.710938 7.394531 5.710938 7.546875 L 5.710938 21.480469 C 5.710938 21.636719 5.738281 21.785156 5.800781 21.925781 C 5.859375 22.070312 5.941406 22.195312 6.050781 22.304688 C 6.160156 22.410156 6.285156 22.496094 6.425781 22.554688 C 6.570312 22.613281 6.71875 22.644531 6.871094 22.644531 L 15 22.644531 C 15.152344 22.644531 15.300781 22.613281 15.445312 22.554688 C 15.585938 22.496094 15.710938 22.410156 15.820312 22.304688 C 15.929688 22.195312 16.015625 22.070312 16.074219 21.925781 C 16.132812 21.785156 16.160156 21.636719 16.160156 21.480469 L 16.160156 19.160156 C 16.160156 19.003906 16.191406 18.859375 16.25 18.714844 C 16.308594 18.574219 16.390625 18.449219 16.5 18.339844 C 16.609375 18.230469 16.734375 18.144531 16.878906 18.085938 C 17.019531 18.027344 17.167969 18 17.324219 18 C 17.476562 18 17.625 18.027344 17.765625 18.085938 C 17.910156 18.144531 18.035156 18.230469 18.144531 18.339844 C 18.253906 18.449219 18.335938 18.574219 18.394531 18.714844 C 18.453125 18.859375 18.484375 19.003906 18.484375 19.160156 L 18.484375 21.480469 C 18.484375 21.945312 18.394531 22.386719 18.21875 22.816406 C 18.039062 23.242188 17.789062 23.617188 17.460938 23.945312 C 17.136719 24.269531 16.757812 24.523438 16.332031 24.699219 C 15.90625 24.875 15.460938 24.964844 15 24.964844 Z M 15 24.964844 " fill-opacity="1" fill-rule="nonzero"/></g><g clip-path="url(#ddad9c170c)"><path fill="#ffffff" d="M 21.96875 19.160156 C 21.730469 19.160156 21.515625 19.09375 21.320312 18.964844 C 21.125 18.832031 20.984375 18.660156 20.894531 18.441406 C 20.804688 18.226562 20.78125 18.003906 20.828125 17.773438 C 20.875 17.542969 20.980469 17.34375 21.144531 17.175781 L 22.648438 15.675781 L 9.195312 15.675781 C 9.039062 15.675781 8.890625 15.648438 8.75 15.585938 C 8.609375 15.527344 8.480469 15.445312 8.375 15.335938 C 8.265625 15.226562 8.179688 15.101562 8.121094 14.960938 C 8.0625 14.816406 8.03125 14.667969 8.03125 14.515625 C 8.03125 14.359375 8.0625 14.214844 8.121094 14.070312 C 8.179688 13.929688 8.265625 13.804688 8.375 13.695312 C 8.480469 13.585938 8.609375 13.5 8.75 13.441406 C 8.890625 13.382812 9.039062 13.355469 9.195312 13.355469 L 22.648438 13.355469 L 21.144531 11.851562 C 21.039062 11.742188 20.960938 11.617188 20.902344 11.476562 C 20.847656 11.335938 20.820312 11.1875 20.820312 11.035156 C 20.820312 10.882812 20.851562 10.738281 20.910156 10.597656 C 20.96875 10.457031 21.050781 10.332031 21.160156 10.226562 C 21.269531 10.117188 21.390625 10.035156 21.53125 9.976562 C 21.671875 9.917969 21.820312 9.886719 21.972656 9.882812 C 22.125 9.882812 22.269531 9.910156 22.410156 9.96875 C 22.554688 10.023438 22.679688 10.105469 22.789062 10.210938 L 26.269531 13.695312 C 26.476562 13.898438 26.589844 14.144531 26.613281 14.433594 C 26.617188 14.511719 26.613281 14.589844 26.605469 14.664062 C 26.574219 14.894531 26.484375 15.09375 26.335938 15.269531 C 26.3125 15.296875 26.292969 15.320312 26.269531 15.34375 L 22.789062 18.820312 C 22.5625 19.046875 22.289062 19.160156 21.96875 19.160156 Z M 21.96875 19.160156 " fill-opacity="1" fill-rule="nonzero"/></g></svg>