<svg xmlns="http://www.w3.org/2000/svg" xmlns:xlink="http://www.w3.org/1999/xlink" width="40" zoomAndPan="magnify" viewBox="0 0 30 30.000001" height="40" preserveAspectRatio="xMidYMid meet" version="1.0"><defs><clipPath id="cd9d57e3a1"><path d="M 2.097656 2.902344 L 19 2.902344 L 19 26.128906 L 2.097656 26.128906 Z M 2.097656 2.902344 " clip-rule="nonzero"/></clipPath></defs><g clip-path="url(#cd9d57e3a1)"><path fill="#0369a1" d="M 14.996094 26.125 L 5.964844 26.125 C 5.710938 26.125 5.460938 26.101562 5.210938 26.050781 C 4.964844 26 4.722656 25.929688 4.488281 25.832031 C 4.25 25.734375 4.027344 25.613281 3.816406 25.472656 C 3.605469 25.332031 3.410156 25.171875 3.230469 24.992188 C 3.050781 24.8125 2.890625 24.617188 2.75 24.40625 C 2.609375 24.195312 2.488281 23.972656 2.390625 23.738281 C 2.296875 23.5 2.222656 23.261719 2.171875 23.011719 C 2.121094 22.761719 2.097656 22.511719 2.097656 22.257812 L 2.097656 6.777344 C 2.097656 6.523438 2.121094 6.269531 2.171875 6.019531 C 2.222656 5.773438 2.296875 5.53125 2.390625 5.296875 C 2.488281 5.0625 2.609375 4.839844 2.75 4.625 C 2.890625 4.414062 3.050781 4.21875 3.230469 4.039062 C 3.410156 3.859375 3.605469 3.699219 3.816406 3.558594 C 4.027344 3.417969 4.25 3.300781 4.488281 3.203125 C 4.722656 3.105469 4.964844 3.03125 5.210938 2.980469 C 5.460938 2.929688 5.710938 2.90625 5.964844 2.90625 L 14.996094 2.90625 C 15.25 2.90625 15.503906 2.929688 15.75 2.980469 C 16 3.03125 16.242188 3.105469 16.476562 3.203125 C 16.710938 3.300781 16.933594 3.417969 17.144531 3.558594 C 17.355469 3.699219 17.550781 3.859375 17.730469 4.039062 C 17.910156 4.21875 18.074219 4.414062 18.214844 4.625 C 18.355469 4.839844 18.472656 5.0625 18.570312 5.296875 C 18.667969 5.53125 18.742188 5.773438 18.792969 6.019531 C 18.839844 6.269531 18.867188 6.523438 18.867188 6.777344 L 18.867188 9.355469 C 18.867188 9.527344 18.835938 9.691406 18.769531 9.851562 C 18.703125 10.007812 18.609375 10.148438 18.488281 10.269531 C 18.367188 10.390625 18.230469 10.484375 18.070312 10.546875 C 17.914062 10.613281 17.746094 10.644531 17.578125 10.644531 C 17.40625 10.644531 17.242188 10.613281 17.082031 10.546875 C 16.925781 10.484375 16.785156 10.390625 16.664062 10.269531 C 16.542969 10.148438 16.449219 10.007812 16.386719 9.851562 C 16.320312 9.691406 16.285156 9.527344 16.285156 9.355469 L 16.285156 6.777344 C 16.285156 6.605469 16.253906 6.441406 16.1875 6.28125 C 16.125 6.125 16.03125 5.984375 15.910156 5.863281 C 15.789062 5.742188 15.648438 5.648438 15.492188 5.585938 C 15.332031 5.519531 15.167969 5.484375 14.996094 5.484375 L 5.964844 5.484375 C 5.796875 5.484375 5.632812 5.519531 5.472656 5.585938 C 5.316406 5.648438 5.175781 5.742188 5.054688 5.863281 C 4.933594 5.984375 4.839844 6.125 4.773438 6.28125 C 4.710938 6.441406 4.675781 6.605469 4.675781 6.777344 L 4.675781 22.257812 C 4.675781 22.425781 4.710938 22.589844 4.773438 22.75 C 4.839844 22.90625 4.933594 23.046875 5.054688 23.167969 C 5.175781 23.289062 5.316406 23.382812 5.472656 23.449219 C 5.632812 23.511719 5.796875 23.546875 5.964844 23.546875 L 14.996094 23.546875 C 15.167969 23.546875 15.332031 23.511719 15.492188 23.449219 C 15.648438 23.382812 15.789062 23.289062 15.910156 23.167969 C 16.03125 23.046875 16.125 22.90625 16.1875 22.75 C 16.253906 22.589844 16.285156 22.425781 16.285156 22.257812 L 16.285156 19.675781 C 16.285156 19.503906 16.320312 19.339844 16.386719 19.183594 C 16.449219 19.023438 16.542969 18.886719 16.664062 18.765625 C 16.785156 18.644531 16.925781 18.550781 17.082031 18.484375 C 17.242188 18.417969 17.40625 18.386719 17.578125 18.386719 C 17.746094 18.386719 17.914062 18.417969 18.070312 18.484375 C 18.230469 18.550781 18.367188 18.644531 18.488281 18.765625 C 18.609375 18.886719 18.703125 19.023438 18.769531 19.183594 C 18.835938 19.339844 18.867188 19.503906 18.867188 19.675781 L 18.867188 22.257812 C 18.867188 22.511719 18.839844 22.761719 18.792969 23.011719 C 18.742188 23.261719 18.667969 23.5 18.570312 23.738281 C 18.472656 23.972656 18.355469 24.195312 18.214844 24.40625 C 18.074219 24.617188 17.910156 24.8125 17.730469 24.992188 C 17.550781 25.171875 17.355469 25.332031 17.144531 25.472656 C 16.933594 25.613281 16.710938 25.734375 16.476562 25.832031 C 16.242188 25.929688 16 26 15.75 26.050781 C 15.503906 26.101562 15.25 26.125 14.996094 26.125 Z M 14.996094 26.125 " fill-opacity="1" fill-rule="nonzero"/></g><path fill="#0369a1" d="M 22.738281 19.675781 C 22.476562 19.675781 22.238281 19.605469 22.019531 19.457031 C 21.804688 19.3125 21.644531 19.121094 21.546875 18.878906 C 21.445312 18.640625 21.421875 18.390625 21.472656 18.132812 C 21.523438 17.878906 21.640625 17.660156 21.824219 17.472656 L 23.492188 15.804688 L 8.546875 15.804688 C 8.375 15.804688 8.210938 15.773438 8.054688 15.707031 C 7.894531 15.640625 7.753906 15.550781 7.632812 15.429688 C 7.515625 15.308594 7.421875 15.167969 7.355469 15.011719 C 7.289062 14.851562 7.257812 14.6875 7.257812 14.515625 C 7.257812 14.34375 7.289062 14.179688 7.355469 14.023438 C 7.421875 13.863281 7.515625 13.726562 7.632812 13.605469 C 7.753906 13.484375 7.894531 13.390625 8.054688 13.324219 C 8.210938 13.257812 8.375 13.226562 8.546875 13.226562 L 23.492188 13.226562 L 21.824219 11.558594 C 21.707031 11.4375 21.617188 11.296875 21.554688 11.140625 C 21.492188 10.984375 21.460938 10.820312 21.460938 10.652344 C 21.464844 10.480469 21.496094 10.320312 21.5625 10.164062 C 21.628906 10.007812 21.722656 9.871094 21.839844 9.75 C 21.960938 9.628906 22.097656 9.539062 22.253906 9.472656 C 22.410156 9.40625 22.574219 9.375 22.742188 9.371094 C 22.910156 9.371094 23.074219 9.402344 23.230469 9.464844 C 23.386719 9.527344 23.527344 9.617188 23.648438 9.734375 L 27.519531 13.605469 C 27.746094 13.832031 27.875 14.105469 27.898438 14.425781 C 27.902344 14.511719 27.902344 14.597656 27.890625 14.683594 C 27.855469 14.9375 27.757812 15.160156 27.589844 15.355469 C 27.566406 15.382812 27.539062 15.410156 27.515625 15.433594 L 23.652344 19.296875 C 23.398438 19.550781 23.09375 19.675781 22.738281 19.675781 Z M 22.738281 19.675781 " fill-opacity="1" fill-rule="nonzero"/></svg>